<?xml version="1.0" encoding="UTF-8"?>
<svg width="97px" height="87px" viewBox="0 0 97 87" version="1.1" xmlns="http://www.w3.org/2000/svg" xmlns:xlink="http://www.w3.org/1999/xlink">
    <!-- Generator: Sketch 45.2 (43514) - http://www.bohemiancoding.com/sketch -->
    <title>maneki_neko</title>
    <desc>Created with Sketch.</desc>
    <defs></defs>
    <g id="Page-1" stroke="none" stroke-width="1" fill="none" fill-rule="evenodd">
        <g id="maneki_neko" transform="translate(0.000000, -1.000000)" fill-rule="nonzero" fill="#FFFFFF">
            <path d="M84.006,84.826 C84.055,85.159 84.101,85.473 84.101,85.79 C84.101,85.858 84.085,85.913 84.009,85.978 C83.491,86.411 81.626,86.322 80.451,86.117 C80.024,86.057 76.258,85.536 75.186,85.713 C63.983,87.563 42.692,86.972 34.411,86.65 C39.23,84.917 41.702,81.73 42.818,79.766 C43.684,78.241 44.233,76.621 44.446,75.074 C45.078,75.097 45.707,75.113 46.324,75.113 C53.7,75.113 59.984,73.504 65.029,70.319 C69.779,67.321 71.995,63.787 72.726,62.407 C74.284,59.472 73.655,54.207 73.428,52.677 C77.709,50.942 81.686,48.713 84.211,45.897 C84.872,45.918 85.322,45.897 85.369,45.893 C85.546,45.91 89.752,46.202 90.745,43.137 C90.83,42.874 90.686,42.592 90.423,42.507 C90.157,42.422 89.878,42.565 89.794,42.828 C89.282,44.407 87.464,44.793 86.328,44.879 C85.253,43.317 85.789,41.986 85.818,41.919 C85.929,41.668 85.818,41.374 85.567,41.26 C85.315,41.147 85.02,41.258 84.905,41.51 C84.873,41.581 84.224,43.088 85.172,44.903 C84.298,44.93 82.801,44.87 81.405,44.542 C80.937,43.217 81.669,41.67 81.677,41.655 C81.797,41.407 81.695,41.107 81.447,40.987 C81.199,40.864 80.9,40.969 80.779,41.215 C80.746,41.284 80.069,42.702 80.297,44.207 C79.531,43.914 78.873,43.508 78.489,42.946 C77.956,42.168 77.98,41.119 78.561,39.827 C81.159,34.043 88.381,37.055 88.713,37.196 C88.918,37.272 93.722,39.111 94.903,46.424 C95.879,52.467 93.218,55.385 92.216,56.482 C91.854,56.88 91.672,57.079 91.713,57.389 C93.512,70.765 88.68,77.516 85.639,80.351 C83.624,82.229 83.828,83.608 84.006,84.826 Z M30.714,86.565 C20.521,88.222 17.078,81.579 16.942,81.306 L8.998,64.075 C10.77,64.635 12.571,64.941 14.195,64.941 C15.451,64.941 16.6,64.764 17.545,64.391 C18.982,63.824 19.934,62.823 20.297,61.494 C20.427,61.021 20.515,60.564 20.57,60.12 C20.584,60.015 20.59,59.962 20.595,59.908 C20.5976667,59.9073333 23.8523333,58.5886667 30.359,55.952 C30.615,55.849 30.738,55.558 30.635,55.302 C30.531,55.046 30.237,54.919 29.983,55.026 L20.622,58.822 C20.594,58.22 20.487,57.653 20.302,57.125 L28.456,53.818 C28.712,53.715 28.835,53.424 28.731,53.168 C28.627,52.912 28.335,52.786 28.08,52.893 L19.892,56.214 C19.602,55.71 19.225,55.254 18.77,54.841 L24.444,52.539 C24.7,52.436 24.823,52.145 24.72,51.889 C24.615,51.632 24.323,51.509 24.068,51.613 L17.842,54.139 C17.134,53.687 16.301,53.309 15.332,53.021 C14.52,52.779 13.856,52.468 13.311,52.138 C13.899,51.52 15.848,49.79 20.688,47.906 C22.194,47.319 26.765,47.038 30.134,48.593 C32.811,49.827 34.544,52.517 35.284,53.664 L35.46,53.935 C37.001,56.273 37.935,58.522 38.11,58.958 C37.366,59.731 37.29,60.499 37.395,60.878 C37.626,61.724 38.223,61.815 38.468,61.815 C38.603,61.815 38.745,61.782 38.891,61.734 C39.064,63.927 40.121,65.873 41.71,67.214 C41.777,67.691 42.176,68.735 43.142,71.261 C43.963,73.406 43.495,76.551 41.949,79.272 C40.698,81.473 37.625,85.321 31.083,86.507 C30.884,86.487 30.794,86.519 30.714,86.565 Z M11.297,86.202 C10.898,85.84 10.781,85.073 10.947,83.923 C11.222,82.018 10.727,81.547 9.48,80.574 C8.639,79.919 7.368,78.928 5.652,76.737 C2.524,72.744 2.495,63.861 2.6,60.583 C3.186,61.107 3.879,61.628 4.725,62.149 C5.655,62.723 6.66,63.206 7.69,63.611 C7.69266667,63.6183333 10.476,69.6596667 16.04,81.735 C16.06,81.777 17.218,84.027 20.028,85.783 C18.249,85.798 15.707,85.896 14.023,86.302 C12.632,86.639 11.738,86.606 11.297,86.202 Z M6.941,43.068 C9.662,45.884 13.491,48.371 15.225,49.432 C13.64,50.399 12.83,51.172 12.488,51.553 C11.545,50.778 11.178,50.054 11.152,49.998 C11.037,49.749 10.743,49.641 10.49,49.753 C10.239,49.868 10.128,50.165 10.243,50.416 C10.289,50.517 11.416,52.9 15.047,53.98 C17.947,54.841 19.479,56.439 19.629,58.743 C18.611,57.784 17.743,57.617 17.697,57.609 C17.431,57.562 17.174,57.745 17.126,58.016 C17.078,58.285 17.259,58.543 17.528,58.595 C17.569,58.604 18.523,58.811 19.556,60.154 C19.504,60.502 19.435,60.858 19.333,61.231 C19.118,62.015 18.641,62.634 17.919,63.086 C17.163,61.211 15.548,60.652 15.476,60.629 C15.213,60.542 14.935,60.688 14.849,60.949 C14.763,61.21 14.906,61.492 15.167,61.579 C15.221,61.598 16.447,62.037 17.016,63.506 C14.104,64.549 8.991,63.606 5.25,61.298 C0.39,58.301 0.636,55.558 1.44,51.329 C2.004,48.36 5.297,44.729 6.941,43.068 Z M16.215,48.86 C14.878,48.061 10.552,45.366 7.655,42.367 C7.732,42.295 7.786,42.243 7.822,42.21 C11.146,45.132 16.701,46.53 19.953,47.126 C18.444,47.729 17.211,48.315 16.215,48.86 Z M46.859,53.101 C44.278,53.101 41.943,54.324 40.459,56.32 C39.506,56.317 37.896,55.771 37.662,55.69 C37.278,54.975 36.827,54.192 36.294,53.384 L36.125,53.122 C35.63,52.356 34.72,50.945 33.384,49.665 C35.878,50.074 40.625,50.681 46.9,50.681 C55.583,50.681 67.168,49.517 79.669,45.059 C80.73,45.482 81.909,45.702 82.927,45.81 C75.352,53.357 56.133,56.463 53.496,56.857 C52.025,54.58 49.534,53.101 46.859,53.101 Z M54.829,61.706 C55.294,61.62 55.665,61.392 55.811,61.014 C55.925,60.717 55.996,60.108 55.182,59.375 C54.941,59.158 54.687,58.942 54.413,58.732 C54.303,58.407 54.172,58.095 54.027,57.79 C56.479,57.417 64.798,56.008 72.47,53.056 C72.699,54.749 73.173,59.431 71.843,61.939 C70.699,64.095 64.026,74.757 44.534,74.076 C44.583,72.93 44.437,71.846 44.076,70.903 C43.557,69.547 43.233,68.683 43.026,68.12 C44.165,68.744 45.471,69.101 46.859,69.101 C51.066,69.101 54.517,65.834 54.829,61.706 Z M43.859,63.601 C43.859,62.891 45.091,62.101 46.859,62.101 C48.627,62.101 49.859,62.891 49.859,63.601 C49.859,64.311 48.627,65.101 46.859,65.101 C45.091,65.101 43.859,64.311 43.859,63.601 Z M45.996,60.104 C46.202,60.11 46.376,60.115 46.511,60.116 L46.66,60.117 C47.79,60.125 51.228,60.148 52.643,61.153 C53.019,61.42 53.429,61.585 53.83,61.673 C53.551,65.088 50.814,67.814 47.393,68.073 L47.37,66.069 C49.36,65.915 50.859,64.894 50.859,63.601 C50.859,62.198 49.102,61.101 46.859,61.101 C44.616,61.101 42.859,62.198 42.859,63.601 C42.859,64.897 44.369,65.923 46.369,66.07 L46.393,68.077 C42.767,67.837 39.887,64.829 39.861,61.15 C40.716,60.441 42.367,60.081 44.772,60.081 C45.241,60.081 45.661,60.094 45.996,60.104 Z M46.859,54.101 C49.355,54.101 51.673,55.582 52.914,57.822 C51.545,57.18 49.617,56.729 46.515,56.729 C43.839,56.729 42.178,56.943 41,57.292 C42.274,55.325 44.444,54.101 46.859,54.101 Z M39.849,57.271 C39.738,57.475 39.636,57.685 39.542,57.9 C39.321,58.025 39.115,58.156 38.917,58.293 C38.79,57.988 38.587,57.526 38.301,56.936 C38.77,57.067 39.328,57.201 39.849,57.271 Z M46.515,57.729 C51.453,57.729 53.116,58.858 54.512,60.117 C54.861,60.433 54.889,60.625 54.877,60.655 C54.865,60.688 54.734,60.782 54.443,60.782 C54.064,60.782 53.619,60.62 53.222,60.339 C51.55,59.15 48.002,59.126 46.667,59.117 L46.519,59.116 C46.39,59.115 46.223,59.11 46.026,59.105 C45.683,59.094 45.252,59.081 44.772,59.081 C42.079,59.081 40.258,59.51 39.208,60.393 C38.728,60.795 38.507,60.815 38.468,60.815 C38.442,60.807 38.397,60.752 38.359,60.615 C38.331,60.492 38.396,59.908 39.228,59.299 C40.235,58.563 41.376,57.729 46.515,57.729 Z M9.056,35.549 C9.431,35.579 9.623,35.453 9.696,35.251 C9.791,34.991 9.658,34.705 9.399,34.61 C9.34,34.588 8.404,34.257 6.707,34.022 C6.846,33.123 7.08,32.196 7.425,31.261 C9.122,31.761 9.791,32.776 9.828,32.836 C9.923,32.988 10.086,33.071 10.253,33.071 C10.342,33.071 10.433,33.047 10.514,32.997 C10.75,32.853 10.823,32.545 10.678,32.31 C10.634,32.238 9.823,30.961 7.804,30.333 C9.268,27.105 11.766,24.129 13.419,22.161 C14.847,20.46 15.255,19.948 15.172,19.469 C14.58,16.055 16.697,3.831 21.388,2.338 C25.01,1.184 32.898,7.319 36.571,10.596 C34.449,11.132 33.242,11.64 33.205,11.656 C32.951,11.765 32.835,12.06 32.944,12.313 C33.054,12.567 33.35,12.682 33.601,12.574 C33.718,12.522 45.563,7.541 61.152,12.59 C61.517,12.615 61.713,12.481 61.782,12.269 C61.867,12.006 61.723,11.724 61.46,11.639 C60.428,11.305 59.413,11.015 58.414,10.763 C61.23,5.524 70.373,1.995 72.884,1.995 C75.034,1.995 76.396,5.252 77.713,8.401 L77.908,8.866 C78.889,11.209 79.141,15.289 79.291,17.728 C79.407,19.592 79.433,19.842 79.64,20.057 C83.287,23.819 85.404,27.392 86.642,30.265 C84.901,30.936 84.087,32.028 84.04,32.095 C83.883,32.32 83.938,32.63 84.164,32.788 C84.251,32.85 84.351,32.879 84.451,32.879 C84.607,32.879 84.761,32.806 84.859,32.669 C84.898,32.615 85.567,31.739 87.017,31.188 C87.347,32.041 87.601,32.818 87.79,33.503 C86.627,33.681 85.827,33.96 85.766,33.982 C85.506,34.075 85.372,34.361 85.464,34.622 C85.538,34.826 85.73,34.953 85.935,34.953 C86.118,34.918 86.902,34.642 88.036,34.478 C88.174,35.1 88.259,35.611 88.307,35.989 C86.32,35.351 80.996,34.139 78.259,38.3 C77.2978516,39.6306966 77.0672201,41.215 77.331,42.864 C77.419,43.089 77.525,43.307 77.665,43.511 C77.897,43.85 78.192,44.141 78.53,44.391 C53.83,52.947 32.98,48.616 31.719,48.339 C31.35,48.099 30.965,47.875 30.553,47.685 C28.094,46.551 24.902,46.287 22.569,46.513 C21.979,46.445 12.624,45.335 8.263,41.278 C7.071,40.169 6.368,37.799 6.589,35.016 C8.175,35.239 9.042,35.544 9.056,35.549 Z M92.955,57.156 C94.045,55.961 96.944,52.783 95.889,46.264 C94.762,39.282 90.491,36.898 89.358,36.383 C89.33,35.994 89.256,35.315 89.058,34.377 C89.71,34.341 90.419,34.358 91.135,34.481 C91.41,34.524 91.667,34.345 91.713,34.073 C91.76,33.801 91.577,33.543 91.305,33.496 C90.437,33.347 89.585,33.334 88.82,33.388 C88.627,32.658 88.359,31.822 88.008,30.907 C88.461,30.814 88.949,30.745 89.513,30.745 C89.79,30.745 90.013,30.522 90.013,30.245 C90.013,29.969 89.79,29.745 89.513,29.745 C88.803,29.745 88.194,29.841 87.632,29.97 C86.37,27.014 84.196,23.338 80.431,19.437 C80.383,19.18 80.335,18.412 80.29,17.666 C80.135,15.165 79.877,10.978 78.83,8.479 L78.635,8.016 C77.192,4.564 75.7,0.995 72.884,0.995 C70.101,0.995 60.302,4.734 57.404,10.522 C49.048,8.605 42.044,9.38 37.755,10.319 C35.725,8.465 25.927,-0.161 21.084,1.385 C15.65,3.114 13.597,15.893 14.174,19.564 C14.049,19.855 13.34,20.7 12.652,21.518 C10.964,23.528 8.414,26.566 6.912,29.876 C6.384,30.034 5.919,29.987 5.401,29.987 C5.125,29.987 4.901,30.211 4.901,30.487 C4.901,30.764 5.125,30.987 5.401,30.987 C5.777,30.987 6.119,31.016 6.44,31.059 C6.104,32 5.865,32.959 5.719,33.906 C4.975,33.835 4.128,33.788 3.175,33.788 C2.899,33.788 2.675,34.011 2.675,34.288 C2.675,34.564 2.899,34.788 3.175,34.788 C4.082,34.788 4.889,34.833 5.598,34.9 C5.373,37.536 5.89,39.976 7.115,41.501 C6.384,42.178 1.232,47.067 0.458,51.142 C-0.182,54.501 -0.434,57.136 1.639,59.606 C1.518,61.697 1.094,72.54 4.865,77.355 C6.656,79.642 7.985,80.678 8.865,81.363 C9.963,82.219 10.161,82.373 9.958,83.78 C9.738,85.299 9.956,86.333 10.623,86.941 C11.054,87.334 11.644,87.528 12.43,87.528 C12.949,87.528 13.555,87.443 14.257,87.274 C16.858,86.648 21.88,86.795 22.034,86.801 C23.558,87.414 25.403,87.835 27.629,87.835 C28.702,87.835 29.861,87.738 31.111,87.521 C32.621,87.582 41.635,88 51.733,88 C60.11,88 69.22,87.712 75.348,86.699 C76.05,86.583 78.699,86.88 80.294,87.105 C80.837,87.2 83.596,87.632 84.652,86.743 C84.946,86.497 85.101,86.167 85.101,85.79 C85.101,85.399 85.047,85.034 84.996,84.682 C84.831,83.565 84.691,82.602 86.321,81.082 C89.491,78.127 94.526,71.129 92.725,57.411 C92.78,57.345 92.86,57.262 92.955,57.156 Z M21.555,17.418 C21.677,17.418 21.804,17.385 21.986,17.294 C22.473,17.05 23.767,16.401 25.553,15.881 C26.731,15.538 27.607,15.392 28.482,15.392 C29.228,15.392 29.588,15.027 29.736,14.81 C29.974,14.462 30.023,13.997 29.867,13.596 C29.62,12.965 29,12.395 28.962,12.363 C28.946,12.346 27.339,10.612 26.172,9.497 C25.52,8.875 24.709,8.101 23.834,8.101 C22.596,8.101 22.075,9.583 21.904,10.07 C20.941,12.811 20.869,16.285 20.871,16.374 C20.85,16.532 20.826,16.927 21.059,17.193 C21.185,17.338 21.361,17.418 21.555,17.418 Z M65.334,15.392 C66.21,15.392 67.085,15.538 68.262,15.881 C70.049,16.401 71.343,17.05 71.883,17.321 C72.011,17.385 72.138,17.418 72.26,17.418 C72.455,17.418 72.63,17.338 72.757,17.193 C72.99,16.926 72.965,16.531 72.949,16.432 C72.946,16.285 72.873,12.811 71.911,10.07 C71.74,9.583 71.219,8.101 69.981,8.101 C69.106,8.101 68.294,8.875 67.642,9.498 C66.482,10.607 64.882,12.332 64.885,12.332 C64.816,12.395 64.195,12.965 63.948,13.596 C63.792,13.998 63.841,14.463 64.079,14.811 C64.227,15.027 64.587,15.392 65.334,15.392 Z M25.859,28.101 C25.859,29.755 27.205,31.101 28.859,31.101 C30.513,31.101 31.859,29.755 31.859,28.101 C31.859,26.446 30.513,25.101 28.859,25.101 C27.205,25.101 25.859,26.446 25.859,28.101 Z M65.859,31.101 C67.513,31.101 68.859,29.755 68.859,28.101 C68.859,26.446 67.513,25.101 65.859,25.101 C64.205,25.101 62.859,26.446 62.859,28.101 C62.859,29.755 64.205,31.101 65.859,31.101 Z M44.859,36.601 C45.902,36.601 46.821,36.064 47.359,35.253 C47.896,36.064 48.815,36.601 49.859,36.601 C51.513,36.601 52.859,35.255 52.859,33.601 C52.859,33.324 52.635,33.101 52.359,33.101 C52.083,33.101 51.859,33.324 51.859,33.601 C51.859,34.704 50.961,35.601 49.859,35.601 C48.756,35.601 47.859,34.704 47.859,33.601 C47.859,33.324 47.635,33.101 47.359,33.101 C47.083,33.101 46.859,33.324 46.859,33.601 C46.859,34.704 45.962,35.601 44.859,35.601 C43.756,35.601 42.859,34.704 42.859,33.601 C42.859,33.324 42.635,33.101 42.359,33.101 C42.083,33.101 41.859,33.324 41.859,33.601 C41.859,35.255 43.205,36.601 44.859,36.601 Z M40.929,72.413 C40.824,72.157 40.532,72.031 40.277,72.138 L21.171,79.888 C20.915,79.991 20.792,80.282 20.896,80.538 C20.975,80.732 21.162,80.851 21.359,80.851 C21.421,80.851 21.485,80.839 21.547,80.813 L40.653,73.064 C40.909,72.96 41.032,72.669 40.929,72.413 Z M40.929,75.319 C40.824,75.064 40.531,74.939 40.277,75.044 L24.081,81.613 C23.825,81.717 23.702,82.008 23.805,82.264 C23.884,82.458 24.071,82.576 24.269,82.576 C24.332,82.576 24.395,82.564 24.456,82.539 L40.653,75.97 C40.909,75.866 41.032,75.575 40.929,75.319 Z M39.822,78.674 C39.718,78.418 39.426,78.292 39.171,78.398 L27.345,83.195 C27.089,83.299 26.966,83.59 27.069,83.846 C27.148,84.04 27.335,84.158 27.533,84.158 C27.595,84.158 27.659,84.147 27.721,84.121 L39.547,79.324 C39.803,79.221 39.926,78.93 39.822,78.674 Z" id="Shape"></path>
        </g>
    </g>
</svg>